<?xml version="1.0" encoding="UTF-8"?>
<svg id="Capa_1" data-name="Capa 1" xmlns="http://www.w3.org/2000/svg" viewBox="0 0 1000 1000">
  <defs>
    <style>
      .cls-1 {
        fill: #f1860b;
      }

      .cls-1, .cls-2, .cls-3 {
        stroke: #f2f2f2;
        stroke-miterlimit: 10;
        stroke-width: 10px;
      }

      .cls-2, .cls-3 {
        fill: none;
      }

      .cls-3 {
        stroke-dasharray: 12.06 12.06;
      }
    </style>
  </defs>
  <path class="cls-2" d="M560.99,250.26l70.05,53.78,18.75,122.25c.13.84,1.16.77,1.21-.07l6.16-92.4s67.08,38.9,78.36,115.25l175.71-281.19-350.23,82.38Z"/>
  <g>
    <path class="cls-2" d="M88.78,936.69s.38-2.08,1.15-5.88"/>
    <path class="cls-3" d="M92.39,919c11.55-53.5,50.79-213.29,117.73-268.14,80.89-66.28,157.74,27.99,244.7,0,86.96-27.99,34.84-138.23,135.73-206.92l49.29-19.98"/>
    <line class="cls-2" x1="645.43" y1="421.69" x2="650.99" y2="419.43"/>
  </g>
  <line class="cls-1" x1="911.22" y1="167.88" x2="631.04" y2="304.05"/>
  <line class="cls-1" x1="911.22" y1="167.88" x2="657.15" y2="333.82"/>
  <line class="cls-2" x1="650.99" y1="426.22" x2="708.77" y2="383.22"/>
</svg>