<?xml version="1.0" encoding="UTF-8"?>
<svg id="Capa_1" data-name="Capa 1" xmlns="http://www.w3.org/2000/svg" viewBox="0 0 1000 1000">
  <path d="M541.19,844.21s-210.64,82.93-329.29-64.62c-112.71-140.16-141.96-411.3,81.37-451.9,175.96-31.98,210.87,124.4,331.2,65.01" style="fill: none; stroke: #f2f2f2; stroke-linecap: round; stroke-miterlimit: 10; stroke-width: 14px;"/>
  <path d="M531.31,359.57s397.5-127.94,394.61,158.78c-3.09,306.54-243.06,424.34-358.67,341.55-66.99-47.98-138.15-34.27-138.15-34.27" style="fill: none; stroke: #f2f2f2; stroke-linecap: round; stroke-miterlimit: 10; stroke-width: 14px;"/>
  <path d="M451.2,353.86s42.59-90.24-22.1-153.07h72.45s57.57,89.67,20.67,193.96l-71.03-40.89Z" style="fill: none; stroke: #f2f2f2; stroke-linecap: round; stroke-miterlimit: 10; stroke-width: 14px;"/>
  <path d="M532.68,357.07c-9.9,17.28,36.67-57.33,150.56-61.89,102.97-4.12,128.92-101.68,180.7-167.19.42-.53.13-1.25-.57-1.42-27.67-7.06-318.79-35.94-330.69,230.5Z" style="fill: none; stroke: #f2f2f2; stroke-linecap: round; stroke-miterlimit: 10; stroke-width: 14px;"/>
</svg>