<?xml version="1.0" encoding="UTF-8"?>
<svg id="Capa_1" data-name="Capa 1" xmlns="http://www.w3.org/2000/svg" viewBox="0 0 1000 1000">
  <defs>
    <style>
      .cls-1 {
        fill: none;
        stroke: #f2f2f2;
        stroke-miterlimit: 10;
        stroke-width: 10px;
      }
    </style>
  </defs>
  <path class="cls-1" d="M171.28,859.96l.93-315.12c.03-10.03,8.99-17.94,19.47-17.2l399.55,28.34c7.83.56,13.89,6.75,13.94,14.24l2.23,341.03c.04,5.44-4.92,9.71-10.59,9.12l-408.5-42.25c-9.72-1.01-17.07-8.84-17.04-18.17Z"/>
  <path class="cls-1" d="M191.67,527.65l15.53-18.86c3.65-2.05,7.86-2.99,12.08-2.7l409.01,28.39c6.34.44,11.23,5.49,11.2,11.55l-2.18,373.18-40.49,1.17"/>
  <path class="cls-1" d="M217.85,507.4s10.84-167.66,41.51-236.37c27.25-61.05,105.39-117.33,220.08-112.91,0,0,171.16,14.37,191.43,213.17,20.27,198.8,6.46,545.92,6.46,545.92l-40.02,2"/>
  <path class="cls-1" d="M479.43,158.12s220.89,15.97,280.82,139.87c52.43,108.41,42.16,466.62,39.51,561.18-.35,12.61-9.06,23.64-21.67,27.46l-100.76,30.57"/>
  <path class="cls-1" d="M634.79,194.94s126.74-64.56,184.26-46.98c27.74,8.48,61.37,36.9,86.35,78.91,26.81,45.09,43.66,105.84,32.6,174.44-21.37,132.52-136.58,369.75-136.58,369.75l.56-191.15s115.48-269.64-14.77-366.21"/>
  <path class="cls-1" d="M387.96,168.59s-7.04-90.4,96.93-65.04c73.01,17.81,78.95,59.86,79.4,68.11.02.42-.54.6-.79.26-5.94-8.1-43.98-54.66-107.09-13.86"/>
  <line class="cls-1" x1="476.96" y1="147.27" x2="476.87" y2="158.03"/>
  <path class="cls-1" d="M911.15,237.13s-20.78-19.38-85.55-23.78c-63.41-4.31-123.14,18.33-123.14,18.33"/>
</svg>