<?xml version="1.0" encoding="UTF-8"?>
<svg id="Capa_1" data-name="Capa 1" xmlns="http://www.w3.org/2000/svg" viewBox="0 0 1000 1000">
  <defs>
    <style>
      .cls-1 {
        stroke-linecap: round;
      }

      .cls-1, .cls-2 {
        fill: none;
        stroke: #f2f2f2;
        stroke-miterlimit: 10;
        stroke-width: 9px;
      }
    </style>
  </defs>
  <polyline class="cls-1" points="44.91 307.53 44.91 695 954.88 695 954.88 307.53"/>
  <path class="cls-2" d="M499.89,692.91s140.98-89.36,370.32-74l-4.11-328.82s-256.1-12.57-374.66,100.53c0,0-159.65-121.61-379.95-100.95l4.11,327.84s223.59-18.15,384.29,75.4Z"/>
  <line class="cls-2" x1="500.19" y1="690.79" x2="491.44" y2="387.12"/>
  <path class="cls-1" d="M555.74,423.05s91.79-67.62,233.73-60.7"/>
  <path class="cls-1" d="M563.17,496.72s96.78-62.39,237.9-47.63"/>
  <path class="cls-1" d="M563.72,578.72s95.46-63.84,236.86-51.21"/>
  <path class="cls-1" d="M422.21,423.05s-90.79-70.14-242.49-51.99"/>
  <path class="cls-1" d="M422.21,503.86s-90.79-70.14-242.49-51.99"/>
  <path class="cls-1" d="M422.21,584.67s-90.79-70.14-242.49-51.99"/>
</svg>