<?xml version="1.0" encoding="UTF-8"?>
<svg id="Capa_1" data-name="Capa 1" xmlns="http://www.w3.org/2000/svg" viewBox="0 0 1000 1000">
  <defs>
    <style>
      .cls-1 {
        fill: #f2f2f2;
      }

      .cls-2 {
        fill: none;
        stroke: #f2f2f2;
        stroke-miterlimit: 10;
        stroke-width: 11px;
      }
    </style>
  </defs>
  <path class="cls-1" d="M698.01,189.98c-111.81-21.96-297.88-32.21-370.6,72.95-9.17,13.37-16.17,28.23-20.91,43.75-20.44,69.63-29.32,142.18-34.67,214.42-6.72,98.26-6.24,197.17-.06,295.47.59,3.87,2.34,6.93,5.04,9.95,33.16,40.03,79.67,68.99,130.33,80.75,10.66,2.55,21.41,4.13,32.37,4.95,33.28,2.41,66.77.95,100.14-1.1,100.36-7.39,200.71-20.78,298.77-43.61,17.05-4.47,34.68-8.53,50.23-16.59,2.77-1.51,3.92-4.23,5.5-7.37,2.1-4.63,3.69-9.89,5.03-15.19,4.11-16.19,5.38-32.96,6.31-49.64,2.89-56.02.88-112.17-1.84-168.21-1.47-22.42-1.75-44.91-4.65-67.2-2.6-18.94-4.4-47.8-6.37-67.07-2.99-32.43-9.84-103.32-12.69-133.52-1.46-6.32-3.5-12.67-5.78-18.77-23.58-63.78-77.55-111.4-143.65-127.18-32.58-8.23-66.47-9.67-100.04-7.05-14.91,2.47-34.26,6.3-49.99,11.64-86.72,27.03-143.35,97.34-152.54,187.54-.79,7.33-.72,18.34-.75,25.77-.83,141.39-2.04,359.22-3.15,501.16,0,0-11-.06-11-.06.62-142.28,1.29-359.41,2.17-501.06-1.19-45.13,11.21-90.31,34.8-128.73,23.6-38.68,60.12-68.63,101.63-86.34,24.69-10.7,51.01-17.46,77.51-21.46,27.78-2.23,55.96-1.54,83.66,3.14,71.13,11.56,131.99,54,163.39,119.44,5.76,11.87,10.61,24.24,13.89,37.05.3.91.43,1.95.69,3.01,2.13,22.51,4.07,44.99,5.76,67.5,2.99,38.14,5.23,79.48,7.26,117.8.34,5.61.38,11.24.3,16.87-.03,22.5,2.3,44.88,3.06,67.36,2.83,67.41,6.41,135.02,1.39,202.44-.96,11.51-1.68,23.22-5.33,34.36-1.22,3.7-3.29,8.05-6.55,11.08-1.92,1.67-4.27,2.99-6.45,4.13-15.73,7.61-32.51,11.55-49.14,15.95-76.74,18.45-154.94,29.89-233.31,38.7-56.16,5.67-112.68,10.9-169.22,7.27-63.29-4.7-123.53-36.24-165.71-83.32-6.64-7.57-13.27-14.44-13.61-25.23-6.15-98.37-6.55-197.13.21-295.48,4.95-67.54,13.2-135.12,30.59-200.74,8.42-34.73,23.57-65.34,49.93-90.01,75.05-69.2,197.21-70.73,293.27-60.87,22.57,2.57,44.92,5.85,67.16,10.65,0,0-2.43,10.73-2.43,10.73h0Z"/>
  <path class="cls-1" d="M489.16,250.74c-1.49,79.47,26.25,164.72,109.06,190.6,47.65,15.35,109.75,11.22,157.18-3.88,74.75-24.31,97.9-85.9,78.17-158.73-3.53-12.79-8.1-25.51-14.11-37.33,0,0,5.81-2.89,5.81-2.89,2.82,6.4,5.15,12.72,7.33,19.3,26.71,80.98,12.08,155.16-75.01,185.97-25.88,9.22-53.14,13.55-80.47,15.34-55.02,3.91-114.65-9.21-151.77-52.9-32.19-36.98-44.45-87.38-44-135.48.13-6.89.46-13.67,1.34-20.65,0,0,6.46.64,6.46.64h0Z"/>
  <path class="cls-2" d="M539.54,598.36l5.2,232.13c.69,30.73,30.23,53.92,62.94,49.43l232.48-31.95c38.62-5.31,66.97-36.47,66.19-72.74l-4.24-197.07c-.85-39.35-38.54-69.15-80.47-63.61l-233.66,30.85c-28.24,3.73-49.04,26.47-48.44,52.98Z"/>
  <path class="cls-2" d="M540.62,646.59s215.95,20.91,361.97-45.96"/>
  <path class="cls-2" d="M261.87,595.86s20.55,54.51,52.43,65.03c31.88,10.51,76.88,2.14,105.81-35.73"/>
  <path class="cls-2" d="M674.11,179.89s-13.22-88.71-118.13-91.58c-94.87-2.59-129.28,82.44-135,98.72-.14.41-.74.29-.73-.14.3-8.36-.69-25.1-12.66-40.23-12.38-15.65-43.68-22.25-58.28-21.86,0,0-62.92-5.04-124.56,78.43l-22.86,34.74c-78.77,122.8-84.73,204.89-92.27,269.97-10.17,87.75-22.36,192.91,50.39,261.91,34.23,32.46,75.93,46.19,104.99,52.57"/>
</svg>