<?xml version="1.0" encoding="UTF-8"?>
<svg id="Capa_1" data-name="Capa 1" xmlns="http://www.w3.org/2000/svg" viewBox="0 0 1000 1000">
  <path d="M407.59,58.8c40.74-.58,123.91-.5,162.06-.86,10.8-.1,19.68,14.79,19.86,33.27l7.71,815.65c.17,18.48-8.44,33.54-19.23,33.64l-166.56,1.57c-10.79.1-19.68-14.78-19.87-33.25-1.79-182.27-5.87-667.61-7.06-809.59-.19-22.18,10.13-40.24,23.09-40.43Z" style="fill: none; stroke: #f2f2f2; stroke-miterlimit: 10; stroke-width: 14px;"/>
  <line x1="447.91" y1="809.58" x2="393.27" y2="810.1" style="fill: none; stroke: #f2f2f2; stroke-miterlimit: 10; stroke-width: 14px;"/>
  <line x1="454.26" y1="725.06" x2="392.47" y2="725.65" style="fill: none; stroke: #f2f2f2; stroke-miterlimit: 10; stroke-width: 14px;"/>
  <line x1="453.21" y1="640.61" x2="392.91" y2="641.18" style="fill: none; stroke: #f2f2f2; stroke-miterlimit: 10; stroke-width: 14px;"/>
  <line x1="455.08" y1="556.14" x2="390.87" y2="556.75" style="fill: none; stroke: #f2f2f2; stroke-miterlimit: 10; stroke-width: 14px;"/>
  <line x1="454.91" y1="471.68" x2="388.85" y2="472.31" style="fill: none; stroke: #f2f2f2; stroke-miterlimit: 10; stroke-width: 14px;"/>
  <line x1="452.74" y1="396.76" x2="389.39" y2="397.36" style="fill: none; stroke: #f2f2f2; stroke-miterlimit: 10; stroke-width: 14px;"/>
  <line x1="450.57" y1="321.84" x2="387.41" y2="322.44" style="fill: none; stroke: #f2f2f2; stroke-miterlimit: 10; stroke-width: 14px;"/>
  <line x1="456.4" y1="246.85" x2="386.71" y2="247.51" style="fill: none; stroke: #f2f2f2; stroke-miterlimit: 10; stroke-width: 14px;"/>
  <line x1="455.69" y1="171.91" x2="386" y2="172.57" style="fill: none; stroke: #f2f2f2; stroke-miterlimit: 10; stroke-width: 14px;"/>
</svg>